<svg width="27" height="18" viewBox="0 0 27 18" fill="none" xmlns="http://www.w3.org/2000/svg">
<path d="M10.875 8.10938C11.8594 8.39062 12.6094 8.90625 13.125 9.65625C13.6406 10.4062 13.9219 11.2969 13.9219 12.3281C13.9219 13.9219 13.3125 15.1406 12.0938 15.9844C11.0625 16.7812 9.70312 17.1562 8.0625 17.1562H0V0.515625H7.82812C9.42188 0.515625 10.6875 0.796875 11.5781 1.35938C12.6094 2.01562 13.125 3.14062 13.125 4.6875C13.125 6.28125 12.375 7.40625 10.875 8.10938ZM3.65625 3.375V7.26562H7.35938C8.01562 7.26562 8.57812 7.125 8.95312 6.79688C9.32812 6.46875 9.5625 5.95312 9.5625 5.25C9.5625 4.03125 8.71875 3.375 7.07812 3.375H3.65625ZM7.54688 14.3438C9.32812 14.3438 10.2656 13.6406 10.2656 12.1406C10.2656 10.5469 9.375 9.75 7.64062 9.75H3.65625V14.3438H7.54688ZM24.375 3.04688V1.40625H17.625V3.04688H24.375ZM27 11.2969L26.9531 11.9062H18.2812C18.2812 12.9375 18.5156 13.6875 19.0312 14.2031C19.5469 14.7656 20.2969 15 21.2344 15C21.7969 15 22.3125 14.8594 22.8281 14.5781C23.3438 14.2969 23.6719 13.9219 23.8594 13.4062H26.7656C25.875 16.125 24 17.4375 21.1406 17.4375C19.2656 17.4375 17.7656 16.875 16.6406 15.7031C15.5156 14.5781 15 13.0312 15 11.1562C15 9.98438 15.2344 8.90625 15.75 7.92188C16.2656 6.98438 17.0156 6.1875 17.9531 5.625C18.8906 5.0625 19.9219 4.78125 21.1406 4.78125C22.9219 4.78125 24.375 5.4375 25.5 6.70312C26.4844 7.92188 27 9.46875 27 11.2969ZM18.2812 9.84375H23.6719C23.5781 9.04688 23.3438 8.4375 22.9219 7.96875C22.4531 7.5 21.8438 7.26562 21.0469 7.26562C20.25 7.26562 19.5938 7.5 19.125 7.96875C18.6094 8.4375 18.3281 9.09375 18.2812 9.84375Z" fill="#B2B2B2"/>
</svg>
