<svg width="21" height="22" viewBox="0 0 21 22" fill="none" xmlns="http://www.w3.org/2000/svg">
<path d="M4.6875 21.5V7.48438H0.328125V21.5H4.6875ZM2.53125 5.5625C3.1875 5.5625 3.79688 5.32812 4.3125 4.8125C4.78125 4.34375 5.0625 3.73438 5.0625 3.03125C5.0625 2.375 4.78125 1.76562 4.3125 1.25C3.79688 0.78125 3.1875 0.5 2.53125 0.5C1.82812 0.5 1.21875 0.78125 0.75 1.25C0.234375 1.76562 0 2.375 0 3.03125C0 3.73438 0.234375 4.34375 0.75 4.8125C1.21875 5.32812 1.82812 5.5625 2.53125 5.5625ZM21 21.5V13.8125C21 11.6562 20.6719 10.0625 20.0625 9.03125C19.2188 7.76562 17.8125 7.10938 15.7969 7.10938C14.7656 7.10938 13.9219 7.39062 13.1719 7.85938C12.4688 8.28125 11.9531 8.79688 11.6719 9.40625H11.625V7.48438H7.45312V21.5H11.7656V14.5625C11.7656 13.4844 11.9062 12.6406 12.2344 12.0781C12.6094 11.3281 13.3125 10.9531 14.3438 10.9531C15.3281 10.9531 15.9844 11.375 16.3594 12.2188C16.5469 12.7344 16.6406 13.5312 16.6406 14.6562V21.5H21Z" fill="#B2B2B2"/>
</svg>
