<svg width="88" height="89" viewBox="0 0 88 89" fill="none" xmlns="http://www.w3.org/2000/svg">
<path d="M78.125 0.75C80.6641 0.75 82.8125 1.72656 84.7656 3.48438C86.5234 5.4375 87.5 7.58594 87.5 10.125V78.875C87.5 81.6094 86.5234 83.7578 84.7656 85.5156C82.8125 87.4688 80.6641 88.25 78.125 88.25H9.375C6.64062 88.25 4.49219 87.4688 2.73438 85.5156C0.78125 83.7578 0 81.6094 0 78.875V10.125C0 7.58594 0.78125 5.4375 2.73438 3.48438C4.49219 1.72656 6.64062 0.75 9.375 0.75H78.125ZM47.6562 68.9141V40.9844H39.4531V68.9141C39.4531 70.8672 39.0625 72.2344 38.2812 73.0156C37.5 73.7969 36.3281 73.9922 34.9609 73.9922C33.5938 73.9922 32.6172 73.6016 31.8359 72.8203C31.0547 72.4297 30.4688 71.4531 29.6875 69.8906L23.0469 73.7969C25.3906 78.875 29.4922 81.4141 35.3516 81.4141C39.0625 81.4141 41.9922 80.4375 44.3359 78.2891C46.4844 76.3359 47.6562 73.2109 47.6562 68.9141ZM66.9922 81.4141C70.8984 81.4141 74.2188 80.4375 76.7578 78.4844C79.2969 76.5312 80.6641 73.6016 80.6641 69.8906C80.6641 66.7656 79.6875 64.0312 77.9297 62.0781C76.1719 60.5156 73.4375 58.7578 69.7266 57L67.7734 56.2188C65.8203 55.4375 64.4531 54.6562 63.6719 53.875C62.8906 53.2891 62.6953 52.5078 62.6953 51.3359C62.6953 50.1641 62.8906 49.3828 63.6719 48.6016C64.4531 48.0156 65.4297 47.625 66.6016 47.625C67.7734 47.625 68.75 48.0156 69.5312 48.4062C70.3125 48.9922 71.0938 49.9688 71.875 51.1406L78.3203 47.0391C76.9531 44.6953 75.3906 43.1328 73.4375 41.9609C71.4844 40.9844 69.3359 40.3984 66.6016 40.3984C62.8906 40.3984 59.9609 41.5703 57.8125 43.5234C55.4688 45.6719 54.4922 48.2109 54.4922 51.3359C54.4922 54.4609 55.2734 57.1953 57.2266 59.1484C58.7891 60.9062 61.1328 62.4688 64.4531 63.6406L66.4062 64.6172C68.75 65.7891 70.1172 66.5703 70.8984 66.9609C71.875 67.7422 72.4609 68.9141 72.4609 70.0859C72.4609 71.2578 71.875 72.2344 70.8984 73.0156C69.7266 73.7969 68.3594 74.1875 66.7969 74.1875C63.4766 74.1875 60.7422 72.625 58.7891 69.1094L52.1484 73.0156C53.3203 75.5547 55.2734 77.5078 57.6172 79.0703C60.1562 80.6328 63.2812 81.4141 66.9922 81.4141Z" fill="#000000"/>
</svg>
