<svg width="88" height="99" viewBox="0 0 88 99" fill="none" xmlns="http://www.w3.org/2000/svg">
<path d="M43.75 98.7188C44.9219 98.7188 46.2891 98.5234 47.4609 97.7422L83.5938 76.8438C84.7656 76.2578 85.5469 75.2812 86.3281 74.1094C86.9141 72.9375 87.3047 71.7656 87.3047 70.2031V28.6016C87.3047 27.4297 86.9141 26.0625 86.3281 24.8906C85.5469 23.7188 84.7656 22.9375 83.5938 22.1562L47.4609 1.25781C46.2891 0.671875 45.1172 0.28125 43.75 0.28125C42.1875 0.28125 41.0156 0.671875 40.0391 1.25781L3.90625 22.1562C2.73438 22.9375 1.75781 23.7188 1.17188 24.8906C0.390625 26.0625 0.195312 27.4297 0.195312 28.6016V70.2031C0.195312 71.7656 0.390625 72.9375 1.17188 74.1094C1.75781 75.2812 2.73438 76.2578 3.90625 76.8438L13.4766 82.3125C15.4297 83.4844 16.9922 84.0703 18.5547 84.2656C19.3359 84.6562 20.3125 84.6562 21.6797 84.6562C25 84.6562 27.5391 83.6797 29.4922 81.7266C31.4453 79.7734 32.4219 76.8438 32.4219 73.3281V32.3125C32.4219 31.9219 32.2266 31.7266 32.0312 31.5312C31.8359 31.3359 31.6406 31.1406 31.25 31.1406H26.7578C26.3672 31.1406 26.1719 31.3359 25.9766 31.5312C25.7812 31.7266 25.5859 31.9219 25.5859 32.1172V73.3281C25.5859 75.2812 24.6094 76.6484 23.0469 77.4297C21.4844 78.4062 19.3359 78.2109 16.9922 77.0391L7.22656 71.1797C6.83594 71.1797 6.64062 70.7891 6.64062 70.2031V28.6016C6.64062 28.2109 6.83594 28.0156 7.22656 27.625L43.1641 6.92188C43.5547 6.72656 43.9453 6.72656 44.3359 6.92188L80.2734 27.625C80.6641 28.0156 80.8594 28.2109 80.8594 28.6016V70.2031C80.8594 70.7891 80.6641 71.1797 80.4688 71.1797L44.3359 92.0781C43.9453 92.4688 43.5547 92.4688 43.1641 92.0781L33.9844 86.6094C33.5938 86.4141 33.2031 86.4141 33.0078 86.6094C31.25 87.5859 29.4922 88.3672 27.5391 88.9531C26.3672 89.3438 26.5625 89.9297 27.9297 90.5156L40.0391 97.7422C41.2109 98.5234 42.3828 98.7188 43.75 98.7188ZM72.8516 57.7031C72.8516 61.6094 71.2891 64.7344 68.1641 66.8828C65.0391 69.0312 60.5469 70.0078 54.8828 70.0078C47.6562 70.0078 42.5781 68.6406 39.4531 65.7109C36.9141 63.5625 35.7422 60.6328 35.7422 56.7266C35.7422 56.5312 35.7422 56.3359 35.9375 56.1406C36.1328 55.9453 36.5234 55.75 36.9141 55.75H41.4062C41.9922 55.75 42.3828 56.1406 42.5781 56.5312C42.9688 59.2656 43.75 61.0234 45.3125 62C47.0703 63.1719 50.1953 63.7578 54.8828 63.7578C58.5938 63.7578 61.3281 63.3672 63.0859 62.3906C64.8438 61.6094 65.625 60.0469 65.625 57.8984C65.625 56.7266 65.0391 55.75 63.8672 54.9688C61.9141 54.1875 58.3984 53.4062 52.9297 52.8203C47.4609 52.4297 43.5547 51.4531 41.2109 49.8906C38.2812 48.3281 36.9141 45.5938 36.9141 41.8828C36.9141 38.1719 38.4766 35.2422 41.4062 33.2891C44.1406 31.3359 48.2422 30.1641 53.5156 30.1641C59.1797 30.1641 63.4766 31.3359 66.4062 33.2891C69.3359 35.2422 71.0938 38.3672 71.4844 42.6641C71.4844 43.0547 71.2891 43.4453 71.0938 43.6406C70.8984 43.8359 70.7031 43.8359 70.5078 43.8359H65.625C65.0391 43.8359 64.6484 43.6406 64.6484 43.0547C64.0625 40.7109 62.8906 38.9531 61.3281 37.9766C59.7656 37 57.0312 36.4141 53.3203 36.4141C49.6094 36.4141 47.0703 37 45.7031 38.1719C44.5312 38.9531 44.1406 40.125 44.1406 41.4922C44.1406 42.4688 44.3359 43.25 44.9219 43.6406C45.3125 44.2266 46.4844 44.6172 48.2422 45.0078C49.8047 45.3984 52.5391 45.9844 56.4453 46.375C62.3047 47.1562 66.6016 48.3281 68.9453 49.6953C71.4844 51.4531 72.8516 54.1875 72.8516 57.7031Z" fill="#000"/>
</svg>
