<svg width="125" height="67" viewBox="0 0 125 67" fill="none" xmlns="http://www.w3.org/2000/svg">
<path d="M62.5 3.8125V4.00781C51.5625 4.00781 41.6016 5.375 32.2266 8.10938C23.2422 10.8438 16.2109 14.5547 11.1328 19.0469C5.85938 23.7344 3.32031 28.4219 3.32031 33.5C3.32031 38.5781 5.85938 43.4609 11.1328 47.9531C16.2109 52.6406 23.2422 56.1562 32.2266 58.8906C41.6016 61.625 51.5625 62.9922 62.5 62.9922C73.2422 62.9922 83.3984 61.625 92.7734 58.8906C101.562 56.1562 108.594 52.6406 113.867 47.9531C118.945 43.4609 121.68 38.5781 121.68 33.5C121.68 28.4219 118.945 23.7344 113.867 19.0469C108.594 14.5547 101.562 10.8438 92.7734 8.10938C83.3984 5.375 73.2422 3.8125 62.5 3.8125ZM62.5 0.6875C73.8281 0.6875 84.1797 2.25 93.9453 5.17969C103.32 8.10938 110.938 12.0156 116.602 17.0938C122.07 22.1719 125 27.6406 125 33.5C125 39.5547 122.07 45.0234 116.602 50.1016C110.938 55.1797 103.32 59.0859 93.9453 61.8203C84.1797 64.9453 73.8281 66.3125 62.5 66.3125C51.1719 66.3125 40.625 64.9453 31.0547 61.8203C21.4844 59.0859 13.8672 55.1797 8.39844 50.1016C2.73438 45.0234 0 39.5547 0 33.5C0 27.6406 2.73438 22.1719 8.39844 17.0938C13.8672 12.0156 21.4844 8.10938 31.0547 5.17969C40.625 2.25 51.1719 0.6875 62.5 0.6875ZM42.5781 30.7656V30.9609C42.9688 28.8125 42.7734 27.25 42.1875 26.2734C41.6016 25.2969 40.625 24.7109 39.0625 24.3203C37.8906 24.3203 36.1328 24.125 33.5938 24.125H31.6406L28.9062 37.9922H30.6641C34.375 37.9922 36.9141 37.7969 38.2812 37.2109C40.4297 36.2344 41.7969 34.0859 42.5781 30.7656ZM18.9453 51.8594L25.3906 19.0469H39.2578C43.3594 19.0469 46.2891 20.2188 48.2422 22.1719C50 24.3203 50.5859 27.0547 50.1953 30.5703C49.6094 34.0859 48.0469 37.0156 45.5078 39.3594C43.5547 41.3125 41.4062 42.2891 38.8672 42.6797C37.3047 43.0703 34.375 43.2656 30.4688 43.2656L27.9297 43.0703L26.1719 51.8594H18.9453ZM55.2734 10.2578L48.8281 43.0703H56.0547L59.7656 24.3203H62.3047H66.7969C67.7734 24.5156 68.5547 24.9062 68.9453 25.2969C69.3359 25.6875 69.3359 26.4688 69.3359 27.4453C69.3359 28.6172 68.75 31.3516 67.9688 35.6484L66.4062 43.0703H73.6328L75.1953 36.0391C76.1719 30.5703 76.7578 27.25 76.9531 25.6875C76.9531 23.7344 76.3672 22.1719 75.3906 21.1953C74.2188 20.2188 72.6562 19.4375 70.3125 19.0469C68.75 19.0469 66.4062 18.8516 63.0859 18.8516H60.7422L62.5 10.2578H55.2734ZM98.6328 30.7656C99.0234 28.8125 98.8281 27.25 98.2422 26.2734C97.6562 25.2969 96.6797 24.7109 95.1172 24.3203C93.9453 24.3203 92.1875 24.125 89.6484 24.125H87.6953L84.9609 37.9922H86.7188C90.2344 37.9922 92.7734 37.7969 94.3359 37.2109C96.4844 36.2344 97.8516 34.0859 98.6328 30.7656ZM75 51.8594L81.4453 19.0469H95.3125C99.4141 19.0469 102.344 20.2188 104.297 22.1719C106.055 24.3203 106.641 27.0547 106.055 30.5703C105.469 34.0859 103.906 37.0156 101.562 39.3594C99.6094 41.3125 97.4609 42.2891 94.9219 42.6797C93.3594 43.0703 90.4297 43.2656 86.3281 43.2656L83.9844 43.0703L82.2266 51.8594H75Z" fill="#3E3E3E"/>
</svg>
