<svg width="100" height="89" viewBox="0 0 100 89" fill="none" xmlns="http://www.w3.org/2000/svg">
<path d="M81.6406 29.0703C87.1094 31.0234 91.4062 33.3672 94.9219 36.1016C98.2422 38.8359 100 41.5703 100 44.5C100 47.625 98.0469 50.5547 94.5312 53.2891C91.0156 56.2188 86.3281 58.5625 80.4688 60.3203L78.7109 60.9062L79.2969 63.6406C80.4688 69.3047 80.4688 74.1875 79.6875 78.4844C78.9062 82.7812 77.1484 85.7109 74.6094 87.0781C71.875 88.6406 68.75 88.6406 64.8438 87.2734C60.9375 86.1016 57.0312 83.5625 52.7344 80.0469L50.1953 77.5078L48.0469 79.4609C43.75 83.3672 39.4531 85.9062 35.3516 87.2734C31.25 88.8359 27.9297 88.8359 25.3906 87.2734C22.6562 85.7109 21.0938 82.9766 20.3125 78.875C19.5312 74.9688 19.5312 70.0859 20.7031 64.6172L21.4844 61.1016L18.75 60.3203C13.0859 58.3672 8.59375 56.0234 5.07812 53.0938C1.5625 50.3594 0 47.4297 0 44.5C0 41.7656 1.5625 38.8359 4.88281 36.1016C8.00781 33.3672 12.5 31.2188 17.9688 29.2656L21.4844 28.0938L20.8984 24.7734C19.7266 19.3047 19.5312 14.4219 20.3125 10.3203C21.0938 6.41406 22.6562 3.67969 25.3906 2.11719C27.9297 0.554688 31.25 0.554688 35.5469 1.92188C39.6484 3.48438 43.9453 6.21875 48.4375 10.125L50 11.6875L52.5391 9.34375C56.8359 5.63281 60.9375 3.09375 64.8438 1.72656C68.75 0.359375 71.875 0.359375 74.6094 1.92188C77.1484 3.48438 78.9062 6.41406 79.6875 10.7109C80.4688 15.0078 80.2734 20.0859 79.1016 25.9453L78.5156 28.0938C79.4922 28.4844 80.4688 28.875 81.6406 29.0703ZM55.2734 12.4688L52.9297 14.6172C55.8594 17.9375 58.5938 21.4531 61.3281 24.9688C65.625 25.3594 69.9219 26.1406 74.4141 27.1172L74.8047 25.1641C75.7812 20.2812 75.9766 15.9844 75.5859 12.4688C75.1953 8.95312 74.0234 6.60938 72.4609 5.63281C70.7031 4.65625 68.3594 4.85156 65.2344 6.02344C62.1094 7.39062 58.7891 9.53906 55.2734 12.4688ZM29.8828 49.3828C28.5156 52.5078 27.5391 55.4375 26.7578 58.1719C29.4922 58.9531 32.6172 59.3438 35.7422 59.5391C34.7656 58.3672 33.7891 56.6094 32.6172 54.6562C31.8359 53.0938 30.8594 51.3359 29.8828 49.3828ZM29.8828 39.6172C30.6641 38.0547 31.4453 36.4922 32.6172 34.5391C33.3984 32.9766 34.5703 31.4141 35.7422 29.4609C32.4219 29.8516 29.4922 30.4375 26.7578 31.0234C27.5391 33.9531 28.7109 36.8828 29.8828 39.6172ZM32.0312 44.5C33.3984 47.4297 34.7656 50.1641 36.3281 52.7031C37.6953 55.2422 39.2578 57.7812 41.0156 60.125C43.9453 60.3203 46.875 60.3203 50 60.3203C53.125 60.3203 56.0547 60.3203 58.9844 59.9297C60.7422 57.3906 62.3047 54.8516 63.8672 52.3125C65.2344 49.7734 66.6016 47.2344 67.9688 44.5C66.4062 41.7656 65.0391 39.0312 63.6719 36.4922C62.1094 33.9531 60.5469 31.4141 58.9844 29.0703C55.8594 28.875 52.9297 28.6797 50 28.6797C46.875 28.6797 43.9453 28.875 41.0156 29.0703C39.0625 31.8047 37.5 34.1484 36.3281 36.4922C34.7656 39.4219 33.2031 42.1562 32.0312 44.5ZM67.3828 54.4609C66.2109 56.6094 65.0391 58.3672 64.2578 59.5391C67.3828 59.1484 70.3125 58.7578 73.4375 57.9766C72.4609 55.0469 71.4844 52.1172 70.3125 49.3828C69.1406 51.3359 68.1641 53.0938 67.3828 54.4609ZM70.1172 39.6172C71.2891 36.8828 72.4609 33.9531 73.2422 31.0234C70.5078 30.4375 67.5781 29.8516 64.4531 29.4609C65.2344 31.2188 66.2109 32.9766 67.3828 34.5391C68.1641 35.9062 68.9453 37.6641 70.1172 39.6172ZM50 17.5469C47.8516 19.8906 45.8984 22.2344 44.1406 24.5781C48.0469 24.5781 51.9531 24.5781 55.8594 24.5781C53.9062 22.2344 51.9531 19.8906 50 17.5469ZM27.3438 5.63281C25.7812 6.60938 24.6094 8.75781 24.2188 12.0781C23.8281 15.3984 24.0234 19.3047 25 23.9922L25.5859 26.9219C29.8828 26.1406 34.375 25.3594 38.6719 24.9688C41.2109 21.4531 43.9453 17.9375 47.0703 14.6172L45.7031 13.25C41.7969 9.92969 38.2812 7.58594 34.9609 6.21875C31.4453 4.85156 28.9062 4.65625 27.3438 5.63281ZM22.6562 57.1953C23.8281 52.8984 25.5859 48.6016 27.5391 44.5C25.5859 40.5938 23.8281 36.2969 22.6562 32L19.3359 33.1719C14.6484 34.7344 11.1328 36.6875 8.39844 38.6406C5.66406 40.7891 4.29688 42.7422 4.29688 44.5C4.49219 47.0391 5.66406 48.9922 7.8125 50.3594C10.9375 52.7031 15.0391 54.8516 20.1172 56.4141C20.8984 56.8047 21.875 57 22.6562 57.1953ZM45.3125 76.3359L47.2656 74.5781C44.1406 71.2578 41.2109 67.7422 38.8672 64.0312C34.375 63.8359 29.8828 63.25 25.5859 62.2734L24.8047 65.3984C23.8281 70.0859 23.6328 73.9922 24.2188 77.1172C24.6094 80.4375 25.7812 82.5859 27.5391 83.3672C29.6875 84.3438 32.0312 84.3438 34.375 83.1719C38.2812 81.6094 41.9922 79.4609 45.3125 76.3359ZM50.1953 71.4531C52.1484 69.1094 54.1016 66.7656 55.8594 64.4219C53.9062 64.6172 51.9531 64.6172 50 64.6172C48.0469 64.6172 46.0938 64.6172 44.3359 64.4219C46.0938 67.1562 48.0469 69.5 50.1953 71.4531ZM75.7812 77.3125H75.5859C76.1719 73.0156 75.9766 68.7188 75.1953 64.4219L74.6094 62.0781C70.3125 63.0547 65.8203 63.6406 61.3281 64.0312C58.7891 67.7422 56.0547 71.2578 53.125 74.5781L55.6641 76.7266C59.1797 79.8516 62.3047 82 65.4297 83.1719C68.5547 84.3438 70.8984 84.5391 72.4609 83.5625C74.4141 82 75.3906 80.0469 75.7812 77.3125ZM79.2969 56.4141C83.9844 54.8516 87.8906 52.8984 91.0156 50.5547C94.1406 48.4062 95.7031 46.4531 95.7031 44.5C95.7031 42.7422 94.1406 40.7891 91.4062 38.6406C88.4766 36.4922 84.7656 34.5391 80.2734 32.9766L77.3438 32.1953C75.9766 36.4922 74.4141 40.5938 72.6562 44.5C74.6094 48.7969 76.1719 52.8984 77.5391 56.8047C77.9297 56.8047 78.5156 56.8047 79.2969 56.4141ZM50 35.5156C47.4609 35.5156 45.3125 36.4922 43.5547 38.25C41.7969 40.0078 41.0156 42.1562 41.0156 44.5C41.0156 47.0391 41.7969 49.1875 43.5547 50.9453C45.3125 52.7031 47.4609 53.4844 50 53.4844C52.3438 53.4844 54.4922 52.7031 56.25 50.9453C58.0078 49.1875 58.9844 47.0391 58.9844 44.5C58.9844 42.1562 58.0078 40.0078 56.25 38.25C54.4922 36.4922 52.3438 35.5156 50 35.5156Z" fill="#000"/>
</svg>
